<mxfile host="app.diagrams.net" modified="2023-06-28T12:46:43.692Z" agent="Mozilla/5.0 (Macintosh; Intel Mac OS X 10_15_7) AppleWebKit/537.36 (KHTML, like Gecko) Chrome/114.0.0.0 Safari/537.36" etag="qQJcCBDVBKBrmyeocCAf" version="21.5.0" type="github">
  <diagram name="Page-1" id="of8g5er7r7XSGEPGMquY">
    <mxGraphModel dx="709" dy="482" grid="1" gridSize="10" guides="1" tooltips="1" connect="1" arrows="1" fold="1" page="1" pageScale="1" pageWidth="827" pageHeight="1169" math="0" shadow="0">
      <root>
        <mxCell id="0" />
        <mxCell id="1" parent="0" />
        <mxCell id="778Xzy9ah3qXj6_bfiE4-1" value="AbstractChannelHandlerContext" style="rounded=0;whiteSpace=wrap;html=1;" vertex="1" parent="1">
          <mxGeometry x="270" y="490" width="180" height="30" as="geometry" />
        </mxCell>
        <mxCell id="778Xzy9ah3qXj6_bfiE4-2" value="AbstractChannelHandlerContext" style="rounded=0;whiteSpace=wrap;html=1;" vertex="1" parent="1">
          <mxGeometry x="500" y="490" width="180" height="30" as="geometry" />
        </mxCell>
        <mxCell id="778Xzy9ah3qXj6_bfiE4-3" value="AbstractChannelHandlerContext" style="rounded=0;whiteSpace=wrap;html=1;" vertex="1" parent="1">
          <mxGeometry x="720" y="490" width="180" height="30" as="geometry" />
        </mxCell>
      </root>
    </mxGraphModel>
  </diagram>
</mxfile>
